<?xml version="1.0" standalone="no"?>
<!DOCTYPE svg PUBLIC "-//W3C//DTD SVG 20010904//EN"
 "http://www.w3.org/TR/2001/REC-SVG-20010904/DTD/svg10.dtd">
<svg version="1.0" xmlns="http://www.w3.org/2000/svg"
 width="260.000000pt" height="260.000000pt" viewBox="0 0 260.000000 260.000000"
 preserveAspectRatio="xMidYMid meet">
<metadata>
Created by potrace 1.14, written by Peter Selinger 2001-2017
</metadata>
<g transform="translate(0.000000,260.000000) scale(0.100000,-0.100000)"
fill="#000000" stroke="none">
<path d="M963 2378 c-4 -7 -9 -137 -10 -288 0 -151 -2 -278 -2 -283 -1 -4 -24
11 -52 33 -55 44 -63 43 -118 -5 -44 -39 -342 -284 -370 -304 l-26 -19 0 -611
c0 -335 -3 -613 -7 -617 -4 -3 -86 -6 -182 -6 -186 0 -205 -5 -191 -48 l6 -20
1283 0 c1159 0 1285 2 1297 16 9 11 10 20 2 32 -9 15 -33 17 -182 18 -94 1
-174 4 -177 7 -3 3 -6 249 -6 547 l0 541 -50 62 c-28 34 -80 99 -117 144 -36
46 -74 83 -83 83 -17 0 -130 -57 -180 -92 l-28 -19 0 94 0 95 -92 79 c-50 43
-99 85 -107 93 -9 8 -41 35 -71 60 -30 24 -87 72 -125 105 -39 33 -93 79 -120
101 -28 23 -96 81 -153 128 -103 86 -124 97 -139 74z m278 -278 c101 -85 200
-171 219 -190 l36 -35 -1 -328 0 -329 -75 -40 c-41 -23 -109 -60 -150 -83
l-75 -43 -5 -387 -5 -388 -57 1 c-32 0 -69 1 -82 1 l-24 1 -1 1000 c0 955 1
1000 18 988 10 -7 100 -83 202 -168z m389 -330 c30 -27 58 -50 63 -50 4 0 7
-324 7 -719 l0 -719 -32 -3 c-18 -2 -49 -2 -69 1 l-35 5 0 768 c0 422 3 767 6
767 3 0 30 -23 60 -50z m-711 -29 l35 -29 0 -716 c1 -709 1 -716 -19 -717 -25
-2 -49 2 -54 7 -7 6 -7 1484 -1 1484 3 0 20 -13 39 -29z m-109 -721 l0 -740
-22 -1 c-27 -1 -308 -1 -325 0 -10 1 -12 137 -12 599 l1 599 102 81 c55 45
133 109 171 141 39 33 73 60 78 60 4 1 7 -332 7 -739z m1126 -738 c-7 -6 -155
-6 -161 0 -6 5 -9 1188 -3 1193 2 2 39 24 83 48 l80 46 3 -641 c1 -353 0 -643
-2 -646z m224 532 c0 -420 -3 -534 -12 -535 -46 -2 -131 0 -135 5 -4 4 -7
1013 -4 1204 l1 44 75 -92 75 -92 0 -534z m-665 -104 l0 -430 -25 -1 c-70 -3
-203 0 -208 5 -4 5 -7 654 -3 713 1 12 89 67 187 117 27 14 49 26 49 26 0 0 0
-193 0 -430z"/>
</g>
</svg>
